<svg xmlns="http://www.w3.org/2000/svg" viewBox="0 0 387 387" role="img" aria-label="Bailly Déménagement"><clipPath id="coin"><rect width="387" height="387" rx="38" ry="38"/></clipPath><g clip-path="url(#coin)"><path d="M368.28,0H18.56C8.95,2.88,2.45,8.65,0,18.57v349.72c2.59,9.61,8.84,16.08,18.56,18.57h349.72c9.6-2.65,16.13-8.82,18.57-18.57V18.57c-2.42-9.46-9.11-16.15-18.57-18.57ZM287.66,28.09c49.83-4.66,50.56,72.24.56,68.61-41.21-2.99-42.19-64.73-.56-68.61ZM145.25,35.77l94.24-.21c4.52.2,7.41,1.82,7.68,6.6.39,7.09-1,15.43-1.16,22.41-.37,15.42.34,32-.71,47.26-.74,10.71-3.82,13.31-9.46,21.49-9.67,14.03-20.95,28.56-31.28,42.23-3.26,4.31-9.87,17.04-15,9.75-15.09-21.89-32.92-42.03-46.68-64.74-2.27-26.48-2.4-53.32-2.88-79.98.06-2.89,2.81-4.3,5.25-4.81h0ZM77.43,32.95c36.81-21.57,72.31,27.75,41.23,54.78-39.23,34.13-82.45-30.64-41.23-54.78ZM303.29,358.23l-8.13-52.62-43.7,53.01-46.81.37c-5.06-.52-7.73-1.63-5.57-7.09,22.75-30.38,47.69-59.19,70.92-89.25,4.51-5.83,14.83-17.1,15.23-24.07.2-3.52-.93-11.26-1.29-15.36-1.23-14.36-2.88-36.01-6.16-49.56-.26-1.05.67-2.23-1.17-1.9l-54.55,66.94-56.14.83-51.43-62.72-5.4-5.05-7.45,66.3c.3,7.49,9.71,17.75,14.43,23.83,21.66,27.9,46.57,55.26,67.27,83.6,3.96,5.41,10,12.5-1.15,13.5l-46.78-.38-43.72-53-8.13,52.62H30.17L62.86,110.45c.82-6.7,6.09-6.51,11.76-6.81,4.71-.25,8.96.8,13.16.84,8.41.1,19.09-.93,27.11-.03,6.39.72,8.64,4.85,12.3,9.37,20.25,24.97,37.94,53.65,58.53,78.42,1.72,2.07,5.33,7.44,8.11,7.37,1.93-.06,6.99-6.79,8.43-8.57,22.14-27.4,41.16-57.71,63.93-84.62,1.7-1.1,3.75-1.74,5.76-1.97,8.72-.98,20.31.15,29.44.03,6.56-.08,14.03-2.6,20.46,1.15l34.83,252.6h-53.39,0ZM232.11,239.08l13.15-16.25v16.25h-13.15ZM154.74,239.08h-13.15v-16.25l13.15,16.25Z"/><polygon points="154.74 239.08 141.59 239.08 141.59 222.83 154.74 239.08" fill="#f5d033"/><polygon points="245.26 222.83 245.26 239.08 232.11 239.08 245.26 222.83" fill="#f5d033"/><path d="M356.68,358.23h-53.39l-8.13-52.62-43.7,53.01-46.81.37c-5.06-.52-7.73-1.63-5.57-7.09,22.75-30.38,47.69-59.19,70.92-89.25,4.51-5.83,14.83-17.1,15.23-24.07.2-3.52-.93-11.26-1.29-15.36-1.23-14.36-2.88-36.01-6.16-49.56-.26-1.05.67-2.23-1.17-1.9l-54.55,66.94-56.14.83-51.43-62.72-5.4-5.05-7.45,66.3c.3,7.49,9.71,17.75,14.43,23.83,21.66,27.9,46.57,55.26,67.27,83.6,3.96,5.41,10,12.5-1.15,13.5l-46.78-.38-43.72-53-8.13,52.62H30.17L62.86,110.45c.82-6.7,6.09-6.51,11.76-6.81,4.71-.25,8.96.8,13.16.84,8.41.1,19.09-.93,27.11-.03,6.39.72,8.64,4.85,12.3,9.37,20.25,24.97,37.94,53.65,58.53,78.42,1.72,2.07,5.33,7.44,8.11,7.37,1.93-.06,6.99-6.79,8.43-8.57,22.14-27.4,41.16-57.71,63.93-84.62,1.7-1.1,3.75-1.74,5.76-1.97,8.72-.98,20.31.15,29.44.03,6.56-.08,14.03-2.6,20.46,1.15l34.83,252.6h0Z" fill="#f5d033"/><path d="M288.22,96.7c-41.21-2.99-42.19-64.73-.56-68.61,49.83-4.66,50.56,72.24.56,68.61Z" fill="#f5d033"/><path d="M246.01,64.57c-.37,15.42.34,32-.71,47.26-.74,10.71-3.82,13.31-9.46,21.49-9.67,14.03-20.95,28.56-31.28,42.23-3.26,4.31-9.87,17.04-15,9.75-15.09-21.89-32.92-42.03-46.68-64.74-2.27-26.48-2.4-53.32-2.88-79.98.06-2.89,2.81-4.3,5.25-4.81l94.24-.21c4.52.2,7.41,1.82,7.68,6.6.39,7.09-1,15.43-1.16,22.41h0Z" fill="#f5d033"/><path d="M118.66,87.73c-39.23,34.13-82.45-30.64-41.23-54.78,36.81-21.57,72.31,27.75,41.23,54.78Z" fill="#f5d033"/></g></svg>
